<?xml version="1.0" standalone="no"?>
<!DOCTYPE svg PUBLIC "-//W3C//DTD SVG 20010904//EN"
 "http://www.w3.org/TR/2001/REC-SVG-20010904/DTD/svg10.dtd">
<svg version="1.0" xmlns="http://www.w3.org/2000/svg"
 width="260.000000pt" height="260.000000pt" viewBox="0 0 260.000000 260.000000"
 preserveAspectRatio="xMidYMid meet">
<metadata>
Created by potrace 1.14, written by Peter Selinger 2001-2017
</metadata>
<g transform="translate(0.000000,260.000000) scale(0.100000,-0.100000)"
fill="#000000" stroke="none">
<path d="M1125 2166 c-323 -63 -566 -285 -657 -601 -20 -70 -23 -102 -23 -255
0 -198 14 -269 81 -403 73 -145 152 -237 283 -326 140 -96 300 -141 497 -141
252 0 430 72 584 237 146 156 221 406 196 646 l-8 67 -436 -2 -437 -3 0 -150
0 -150 258 -3 259 -2 -7 -33 c-4 -17 -16 -52 -27 -77 -81 -188 -380 -265 -604
-155 -124 60 -214 179 -249 327 -19 81 -19 255 0 337 32 133 115 249 225 314
130 76 352 76 491 0 91 -49 189 -174 189 -240 0 -18 6 -23 25 -23 41 0 330 42
336 49 12 12 -20 135 -52 199 -85 174 -272 315 -494 373 -103 27 -328 35 -430
15z"/>
</g>
</svg>
