<svg width="28" height="28" viewBox="0 0 28 28" fill="none" xmlns="http://www.w3.org/2000/svg">
<path d="M13.816 26.632C11.368 26.632 9.172 26.08 7.228 24.976C5.284 23.872 3.76 22.348 2.656 20.404C1.552 18.46 1 16.264 1 13.816C1 11.368 1.54 9.172 2.62 7.228C3.724 5.284 5.248 3.76 7.192 2.656C9.136 1.552 11.32 1 13.744 1C15.88 1 17.824 1.384 19.576 2.152C21.352 2.92 22.768 3.988 23.824 5.356C24.904 6.7 25.516 8.224 25.66 9.928L20.332 10.648C20.116 9.208 19.396 8.044 18.172 7.156C16.972 6.268 15.496 5.824 13.744 5.824C12.328 5.824 11.08 6.16 10 6.832C8.92 7.48 8.08 8.416 7.48 9.64C6.904 10.84 6.616 12.232 6.616 13.816C6.616 15.4 6.916 16.804 7.516 18.028C8.116 19.228 8.956 20.164 10.036 20.836C11.14 21.484 12.4 21.808 13.816 21.808C15.544 21.808 16.972 21.376 18.1 20.512C19.228 19.648 19.84 18.52 19.936 17.128H12.34V12.664H25.228C25.348 13.432 25.408 14.2 25.408 14.968C25.408 17.272 24.928 19.312 23.968 21.088C23.008 22.84 21.64 24.208 19.864 25.192C18.112 26.152 16.096 26.632 13.816 26.632Z" fill="#324148"/>
<style>
        @media (prefers-color-scheme: dark) {
            path {
                fill: #fff;
            }
        }
    </style>

</svg>
