<?xml version="1.0" encoding="UTF-8"?>
<svg width="35px" height="35px" viewBox="0 0 35 35" version="1.1" xmlns="http://www.w3.org/2000/svg" xmlns:xlink="http://www.w3.org/1999/xlink">
    <!-- Generator: Sketch 52.2 (67145) - http://www.bohemiancoding.com/sketch -->
    <title>Artboard</title>
    <desc>Created with Sketch.</desc>
    <g id="Artboard" stroke="none" stroke-width="1" fill="none" fill-rule="evenodd">
        <circle id="Oval-Copy-9" fill="#434343" cx="17.5" cy="17.5" r="17.5"></circle>
        <g id="Instagram_simple_icon" transform="translate(8.000000, 8.000000)" fill="#FFFFFF">
            <path d="M9.49994343,1.71174636 C12.036545,1.71174636 12.3369806,1.72143791 13.3388225,1.76714281 C14.2650557,1.80941607 14.7680318,1.96414147 15.1028213,2.09424203 C15.5154477,2.24653587 15.8886972,2.48937037 16.1951295,2.80489281 C16.5106494,3.11132748 16.753482,3.48458001 16.9057746,3.89720964 C17.0358741,4.23196405 17.190636,4.73498187 17.2328712,5.66122249 C17.2785758,6.66299686 17.2882672,6.96343489 17.2882672,9.50013199 C17.2882672,12.0368291 17.2785758,12.3371917 17.2328712,13.3390415 C17.1905983,14.2652821 17.0358364,14.7682622 16.9057746,15.1030543 C16.5861778,15.9315656 15.931326,16.5864226 15.1028213,16.9060219 C14.7680695,17.0361225 14.2650557,17.1908856 13.3388225,17.2331212 C12.3372446,17.2788261 12.0368089,17.2885176 9.49994343,17.2885176 C6.96307793,17.2885176 6.66275541,17.2788261 5.66106441,17.2331212 C4.73483115,17.1908479 4.23185503,17.0360848 3.89706557,16.9060219 C3.48443864,16.7537293 3.11118883,16.5108946 2.80475742,16.1953712 C2.48923847,15.8889357 2.24640605,15.5156834 2.09411228,15.1030543 C1.96401274,14.7682999 1.80925086,14.2652821 1.76701565,13.3390415 C1.72131112,12.3373048 1.71161964,12.0368291 1.71161964,9.50013199 C1.71161964,6.96343489 1.72131112,6.66307228 1.76701565,5.66122249 C1.80928857,4.73498187 1.96401274,4.23200176 2.09411228,3.89720964 C2.2464219,3.48455945 2.48928092,3.11129298 2.80483284,2.8048551 C3.11126588,2.48933365 3.48451522,2.24649931 3.89714099,2.09420432 C4.23189274,1.96410375 4.73490657,1.80934065 5.66113983,1.7671051 C6.66290625,1.7214002 6.9633419,1.71170865 9.50001886,1.71170865 L9.49994343,1.71174636 Z M9.50001886,3.3493483e-17 C6.91997539,3.3493483e-17 6.59634808,0.0109359897 5.58323095,0.0571688291 C4.57203704,0.103326248 3.88149133,0.263896745 3.27722613,0.498756552 C2.64334344,0.737298062 2.06912265,1.11123948 1.59460548,1.59450501 C1.11123488,2.0689962 0.737192017,2.64322378 0.498564043,3.27713902 C0.26389465,3.88144673 0.103325427,4.57199791 0.0573569252,5.58319986 C0.0109359029,6.59632503 0,6.91995491 0,9.50001886 C0,12.0800828 0.0109359029,12.4037127 0.0573569252,13.4168379 C0.103513978,14.4280398 0.2640832,15.118591 0.498941143,15.722861 C0.737481846,16.3567482 1.11142015,16.9309733 1.5946809,17.405495 C2.06919653,17.8887624 2.64341776,18.2627041 3.27730155,18.5012434 C3.88160446,18.7361033 4.57215017,18.8966738 5.58330637,18.9428312 C6.59657434,18.989064 6.92008852,19 9.50009428,19 C12.0801,19 12.403765,18.989064 13.4168822,18.9428312 C14.4280761,18.8966738 15.1186218,18.7361033 15.722887,18.5012434 C16.9989463,18.0077086 18.0077165,16.9989304 18.5012474,15.722861 C18.7361053,15.1185533 18.8966746,14.4280021 18.9428316,13.4168379 C18.9890641,12.4035618 19,12.0800451 19,9.50001886 C19,6.91999262 18.9890641,6.59632503 18.9428316,5.58319986 C18.8966746,4.57199791 18.7361053,3.88144673 18.5012474,3.27717673 C18.26271,2.6432879 17.8887712,2.06906212 17.4055076,1.59454272 C16.9309808,1.11118084 16.3567182,0.737160129 15.7227739,0.498568001 C15.118471,0.263896745 14.4279253,0.103326248 13.4167313,0.0573573806 C12.4036142,0.0109359897 12.0799869,0 9.49994343,0 L9.50001886,3.3493483e-17 Z" id="Shape" fill-rule="nonzero"></path>
            <path d="M9.68269231,4.75 C6.95844157,4.75 4.75,6.95844157 4.75,9.68269231 C4.75,12.406943 6.95844157,14.6153846 9.68269231,14.6153846 C12.406943,14.6153846 14.6153846,12.406943 14.6153846,9.68269231 C14.6153846,6.95844157 12.406943,4.75 9.68269231,4.75 Z M9.68269231,12.884586 C7.91434024,12.8845649 6.48082276,11.451019 6.48083679,9.68266689 C6.48085083,7.91431482 7.91439108,6.48079165 9.68274315,6.48079866 C11.4510952,6.48080568 12.8846241,7.91434024 12.8846241,9.68269231 C12.884603,11.4510555 11.4510555,12.884586 9.68269231,12.884586 Z" id="Shape" fill-rule="nonzero"></path>
            <circle id="Oval" cx="14.6153846" cy="4.38461538" r="1.09615385"></circle>
        </g>
    </g>
</svg>