<?xml version="1.0" encoding="UTF-8" standalone="no"?>
<svg width="35px" height="35px" viewBox="0 0 35 35" version="1.1" xmlns="http://www.w3.org/2000/svg" xmlns:xlink="http://www.w3.org/1999/xlink">
    <!-- Generator: Sketch 39.1 (31720) - http://www.bohemiancoding.com/sketch -->
    <title>Group 5</title>
    <desc>Created with Sketch.</desc>
    <defs></defs>
    <g id="Page-1" stroke="none" stroke-width="1" fill="none" fill-rule="evenodd">
        <g id="Artboard-3-Copy-2">
            <g id="Group-5">
                <circle id="Oval-Copy-9" fill="#0075B6" cx="17.5" cy="17.5" r="17.5"></circle>
                <path d="M10.51243,12.0035903 C10.8420824,12.3332427 11.3006582,12.4980689 11.8498069,12.4980689 L11.8685742,12.4980689 C12.4544416,12.4980689 12.9122015,12.3332427 13.2598053,12.0035903 C13.608225,11.6551705 13.7730512,11.2520807 13.7730512,10.7396508 C13.7730512,10.2451722 13.5894577,9.82413099 13.2598053,9.49447859 C12.9301529,9.1648262 12.472393,9 11.904477,9 C11.336561,9 10.8788011,9.1648262 10.5311973,9.49447859 C10.1827776,9.82413099 10,10.2451722 10,10.7396508 C10,11.2520807 10.1648262,11.6551705 10.51243,12.0035903 L10.51243,12.0035903 Z M10.2015449,24 L13.5715063,24 L13.5715063,13.8901159 L10.2015449,13.8901159 L10.2015449,24 Z M18.7912745,24 L18.7912745,18.3583746 C18.7912745,18.0107708 18.8279933,17.7357885 18.9014307,17.5342436 C19.0474895,17.1866398 19.2678018,16.8937061 19.5607355,16.6554425 C19.8349018,16.4171789 20.2012729,16.3070228 20.6410814,16.3070228 C21.2269488,16.3070228 21.64799,16.5085677 21.9229723,16.9116575 C22.1979546,17.3147473 22.3440135,17.8826633 22.3440135,18.5966382 L22.3440135,24 L25.7139749,24 L25.7139749,18.2123157 C25.7139749,16.7101126 25.3663711,15.5750966 24.6523962,14.8056356 C23.9376054,14.0361747 23.0033183,13.6518523 21.8315835,13.6518523 C21.4105423,13.6518523 21.0074525,13.7065223 20.6590328,13.8166785 C20.311429,13.9080672 20.0184953,14.0549421 19.7622804,14.255671 C19.5240168,14.4392645 19.3404232,14.6220421 19.1943644,14.7876843 C19.0474895,14.9516945 18.9014307,15.135288 18.7725072,15.3547843 L18.7912745,15.3547843 L18.7912745,13.8901159 L15.4213132,13.8901159 L15.4392645,14.3845945 L15.4392645,17.4061361 C15.4392645,19.0911168 15.4392645,21.2893434 15.4213132,24 L18.7912745,24 L18.7912745,24 Z" id="Fill-54-Copy-2" fill="#FFFFFF"></path>
            </g>
        </g>
    </g>
</svg>