<?xml version="1.0" encoding="UTF-8" standalone="no"?>
<svg width="35px" height="35px" viewBox="0 0 35 35" version="1.1" xmlns="http://www.w3.org/2000/svg" xmlns:xlink="http://www.w3.org/1999/xlink">
    <!-- Generator: Sketch 39.1 (31720) - http://www.bohemiancoding.com/sketch -->
    <title>Group 3</title>
    <desc>Created with Sketch.</desc>
    <defs></defs>
    <g id="Page-1" stroke="none" stroke-width="1" fill="none" fill-rule="evenodd">
        <g id="Artboard-3">
            <g id="Group-3">
                <circle id="Oval-Copy-3" fill="#50ABF1" cx="17.5" cy="17.5" r="17.5"></circle>
                <path d="M14.6517993,24.6207805 C15.9627978,24.6207805 17.1907755,24.4164217 18.3585403,24.0067917 C19.5053218,23.5761784 20.4878865,23.0233147 21.3071465,22.3272174 C22.1054232,21.6311201 22.8225038,20.8328434 23.4164217,19.9314749 C23.9893563,19.0100355 24.4400405,18.0676128 24.7265079,17.0850482 C25.0138875,16.1024835 25.1571211,15.1190066 25.1571211,14.1154587 L25.1571211,13.6447035 C25.8732894,13.1128231 26.4881906,12.477851 27,11.7406994 C26.2829194,12.0271668 25.5868221,12.2315256 24.8697415,12.2935631 C25.6689306,11.8218956 26.2217942,11.1467816 26.4881906,10.2663964 C25.77111,10.6960973 24.9929042,11.0035479 24.1535732,11.1668525 C23.4164217,10.3886467 22.5150532,10 21.4503801,10 C20.4468322,10 19.566447,10.3475925 18.8493664,11.0646731 C18.1331982,11.8018246 17.7646224,12.6621389 17.7646224,13.6857577 C17.7646224,13.9521541 17.8056766,14.2386214 17.8668018,14.5250887 C16.3514445,14.4639635 14.9382666,14.0744045 13.6071972,13.3992904 C12.297111,12.7031931 11.1704004,11.8018246 10.248961,10.6760264 C9.92143943,11.248961 9.73715155,11.8629498 9.73715155,12.5389762 C9.73715155,13.152965 9.90136847,13.7468829 10.1878358,14.2997466 C10.4952864,14.8325393 10.8839331,15.2622402 11.3957425,15.6107451 C10.8018246,15.5897618 10.248961,15.4264572 9.71708059,15.1399899 L9.71708059,15.1810441 C9.71708059,16.0815003 10.0035479,16.859706 10.5564116,17.5357324 C11.1293462,18.2117587 11.8254435,18.6204764 12.6857577,18.8047643 C12.3582362,18.8868728 12.0307146,18.927927 11.7031931,18.927927 C11.4979219,18.927927 11.2725798,18.9078561 11.0070958,18.8668018 C11.2525089,19.6039534 11.6822098,20.2179422 12.317182,20.6896097 C12.9521541,21.1804359 13.6692347,21.425849 14.4675114,21.425849 C13.116371,22.4914344 11.6010137,23.0032438 9.8803852,23.0032438 C9.55286366,23.0032438 9.26639635,23.0032438 9,22.9621896 C10.6996452,24.0679169 12.6036493,24.6207805 14.6517993,24.6207805" id="Fill-178-Copy-2" fill="#FFFFFF"></path>
            </g>
        </g>
    </g>
</svg>